HIERARCHY
ROOT Hips
{
	OFFSET 0.000000 0.000000 0.000000 
	CHANNELS 6 Xposition Yposition Zposition Zrotation Yrotation Xrotation
	JOINT LeftUpLeg
	{
		OFFSET 1.363060 -1.794630 0.839290 
		CHANNELS 3 Zrotation Yrotation Xrotation
		JOINT LeftLeg
		{
			OFFSET 2.448110 -6.726130 0.000000 
			CHANNELS 3 Zrotation Yrotation Xrotation
			JOINT LeftFoot
			{
				OFFSET 2.562200 -7.039590 0.000000 
				CHANNELS 3 Zrotation Yrotation Xrotation
				JOINT LeftToeBase
				{
					OFFSET 0.157640 -0.433110 2.322550 
					CHANNELS 3 Zrotation Yrotation Xrotation
					End Site
					{
						OFFSET 0.000000 0.000000 0.000000 
					}
				}
			}
		}
	}
	JOINT RightUpLeg
	{
		OFFSET -1.305520 -1.794630 0.839290 
		CHANNELS 3 Zrotation Yrotation Xrotation
		JOINT RightLeg
		{
			OFFSET -2.542530 -6.985550 0.000000 
			CHANNELS 3 Zrotation Yrotation Xrotation
			JOINT RightFoot
			{
				OFFSET -2.568260 -7.056230 0.000000 
				CHANNELS 3 Zrotation Yrotation Xrotation
				JOINT RightToeBase
				{
					OFFSET -0.164730 -0.452590 2.363150 
					CHANNELS 3 Zrotation Yrotation Xrotation
					End Site
					{
						OFFSET 0.000000 0.000000 0.000000 
					}
				}
			}
		}
	}
	JOINT Spine
	{
		OFFSET 0.028270 2.035590 -0.193380 
		CHANNELS 3 Zrotation Yrotation Xrotation
		JOINT Spine1
		{
			OFFSET 0.056720 2.048850 -0.042750 
			CHANNELS 3 Zrotation Yrotation Xrotation
			JOINT Neck1
			{
				OFFSET -0.054170 1.746240 0.172020 
				CHANNELS 3 Zrotation Yrotation Xrotation
				JOINT Head
				{
					OFFSET 0.104070 1.761360 -0.123970 
					CHANNELS 3 Zrotation Yrotation Xrotation
					End Site
					{
						OFFSET 0.000000 0.000000 0.000000 
					}
				}
			}
			JOINT LeftArm
			{
				OFFSET 3.362410 1.200890 -0.311210 
				CHANNELS 3 Zrotation Yrotation Xrotation
				JOINT LeftForeArm
				{
					OFFSET 4.983000 -0.000000 -0.000000 
					CHANNELS 3 Zrotation Yrotation Xrotation
					JOINT LeftHand
					{
						OFFSET 3.483560 -0.000000 -0.000000 
						CHANNELS 3 Zrotation Yrotation Xrotation
						JOINT LeftHandIndex1
						{
							OFFSET 0.715260 -0.000000 -0.000000 
							CHANNELS 3 Zrotation Yrotation Xrotation
							End Site
							{
								OFFSET 0.000000 0.000000 0.000000 
							}
						}
					}
				}
			}
			JOINT RightArm
			{
				OFFSET -3.136600 1.374050 -0.404650 
				CHANNELS 3 Zrotation Yrotation Xrotation
				JOINT RightForeArm
				{
					OFFSET -5.241900 -0.000000 -0.000000 
					CHANNELS 3 Zrotation Yrotation Xrotation
					JOINT RightHand
					{
						OFFSET -3.444170 -0.000000 -0.000000 
						CHANNELS 3 Zrotation Yrotation Xrotation
						JOINT RightHandIndex1
						{
							OFFSET -0.622530 -0.000000 -0.000000 
							CHANNELS 3 Zrotation Yrotation Xrotation
							End Site
							{
								OFFSET 0.000000 0.000000 0.000000 
							}
						}
					}
				}
			}
		}
	}
}
MOTION
Frames: 7
Frame Time: 0.041667
10.198579 18.009613 16.320822 -176.994012 2.419407 -179.085437 -18.667023 -25.098958 1.740956 -2.998706 6.644600 19.919425 -5.115721 18.510718 -13.496195 2.783000 -10.335200 -30.069200 31.044470 19.605694 8.632232 3.783142 -2.784931 12.260773 6.288936 -27.305717 -16.127090 -0.006500 0.520800 -1.431200 2.668265 1.439512 4.991186 -5.558179 0.460932 -14.854534 17.296978 -3.702065 9.798571 3.277800 -1.338700 3.838500 -89.907927 17.515052 29.008371 22.195837 -20.982013 -5.396509 2.037128 0.085392 20.895280 -7.125000 0.000000 0.000000 89.761378 -21.259497 40.628748 -26.158714 29.044627 -7.890683 0.682498 -0.642879 3.524227 7.125000 0.000000 0.000000 
10.197309 18.007650 16.328329 -177.001960 2.539775 -179.101075 -18.641135 -24.794277 1.540077 -2.973936 6.682890 20.030064 -5.084604 18.404939 -13.378857 2.805300 -10.373100 -30.193500 30.983812 19.511565 8.550031 3.768498 -2.802328 12.291292 6.307682 -27.284755 -15.746652 -0.037400 1.248000 -3.431400 2.828614 1.431141 5.179589 -5.504483 0.476603 -14.875472 17.313392 -3.636346 9.531544 3.289500 -1.328400 3.755300 -89.944813 17.456027 28.996218 22.129357 -20.910313 -5.382224 2.037509 0.103233 21.078315 -7.125000 0.000000 0.000000 89.554494 -21.234214 40.938680 -26.231205 29.117610 -7.921712 0.680972 -0.648545 3.407616 7.125000 0.000000 0.000000 
10.194883 18.003954 16.335028 -176.983419 2.666630 -179.109266 -18.576191 -24.449580 1.319652 -2.951875 6.709225 20.113032 -5.033147 18.227963 -13.225467 2.835400 -10.423800 -30.360200 30.999532 19.626557 8.528200 3.756302 -2.832606 12.343769 6.385641 -27.473093 -15.456905 -0.083600 1.864800 -5.132200 3.044879 1.427025 5.426579 -5.479175 0.490849 -14.870547 17.405381 -3.557593 9.361149 3.337300 -1.301500 3.714500 -89.964260 17.331165 29.039430 22.057463 -20.835020 -5.362670 2.041713 0.106688 21.040869 -7.125000 0.000000 0.000000 89.251801 -21.217656 41.360638 -26.351275 29.240378 -7.983171 0.685155 -0.652308 3.399977 7.125000 0.000000 0.000000 
10.191072 18.005686 16.341380 -176.961333 2.790153 -179.067692 -18.483886 -24.218055 1.102648 -2.941351 6.729446 20.170038 -4.959533 18.013684 -13.241912 2.792700 -10.351700 -30.123200 30.938451 19.531614 8.322308 3.737657 -2.878953 12.439731 6.346217 -27.314871 -15.276845 -0.092700 1.964000 -5.406100 3.080397 1.461206 5.550908 -5.522796 0.506377 -14.885712 17.547838 -3.542210 9.294984 3.396700 -1.295900 3.709500 -89.922832 17.288318 29.162669 22.052666 -20.831896 -5.359834 2.038306 0.112553 21.004626 -7.125000 0.000000 0.000000 89.009936 -21.223282 41.774421 -26.504947 29.414834 -8.081012 0.703148 -0.642754 3.531197 7.125000 0.000000 0.000000 
10.187376 18.008920 16.347848 -176.951914 2.939479 -179.018809 -18.414794 -24.063463 0.935465 -2.936555 6.745529 20.213278 -4.901895 17.860037 -13.332135 2.709600 -10.209300 -29.657300 30.838777 19.350047 8.040717 3.711291 -2.940392 12.572247 6.271123 -27.031585 -15.038843 -0.103800 2.078000 -5.721300 3.006423 1.524400 5.657157 -5.567131 0.533686 -14.897712 17.639905 -3.577086 9.171699 3.424400 -1.320500 3.682800 -89.853407 17.309479 29.322713 22.153775 -20.945698 -5.386396 2.030605 0.106622 20.846544 -7.125000 0.000000 0.000000 88.855127 -21.196229 42.150679 -26.578984 29.496992 -8.125020 0.715858 -0.639221 3.724789 7.125000 0.000000 0.000000 
10.184489 18.009613 16.356164 -176.999474 3.105684 -178.992401 -18.401569 -23.793759 0.746691 -2.922950 6.768781 20.265240 -4.869121 17.749805 -13.203774 2.707900 -10.206500 -29.648200 30.746200 19.354492 7.921423 3.698544 -2.968186 12.632463 6.226323 -26.859490 -14.925454 -0.103800 2.077600 -5.720200 2.863585 1.563961 5.631390 -5.558808 0.553742 -14.991050 17.763492 -3.602524 9.167685 3.455700 -1.329100 3.682400 -89.786509 17.424470 29.433077 22.289448 -21.103775 -5.436906 2.021944 0.111142 20.501920 -7.125000 0.000000 0.000000 88.717871 -21.217800 42.551254 -26.658349 29.582877 -8.163833 0.721506 -0.636234 3.461270 7.125000 0.000000 0.000000 
10.182525 18.010422 16.364711 -177.035188 3.207131 -178.979263 -18.359080 -23.401612 0.488155 -2.901175 6.795676 20.323176 -4.842087 17.622996 -12.894506 2.833300 -10.420300 -30.348600 30.669445 19.349701 7.831509 3.689756 -2.986807 12.673534 6.189442 -26.722714 -14.859812 -0.097400 2.012600 -5.540400 2.835270 1.546212 5.568474 -5.519581 0.549282 -15.113399 17.726261 -3.596816 9.221772 3.440500 -1.322000 3.692300 -89.742512 17.578345 29.596476 22.385996 -21.213044 -5.480946 2.009534 0.140994 20.187958 -7.125000 0.000000 0.000000 88.477746 -21.306241 43.030475 -26.899419 29.850442 -8.298776 0.730052 -0.624823 2.787234 7.125000 0.000000 0.000000 
